<?xml version="1.0" encoding="utf-8"?>
<!-- Generator: Adobe Illustrator 19.0.0, SVG Export Plug-In . SVG Version: 6.00 Build 0)  -->
<svg version="1.1" id="RAW_ICONS_-_SQUARE__x2F__ROUNDED__x2F__CIRCLE"
	 xmlns="http://www.w3.org/2000/svg" xmlns:xlink="http://www.w3.org/1999/xlink" x="0px" y="0px" viewBox="-370 282 50 50"
	 style="enable-background:new -370 282 50 50;" xml:space="preserve">
<style type="text/css">
	.st0{fill:#8E99A8;}
</style>
<path id="Dribbble" class="st0" d="M-328.1,299.9c-0.5-1.1-1-2.1-1.7-3.1c-0.7-1-1.4-1.9-2.2-2.7c-0.8-0.8-1.7-1.6-2.7-2.2
	c-1-0.7-2-1.2-3.1-1.7c-1.1-0.5-2.3-0.8-3.4-1.1c-1.2-0.2-2.4-0.4-3.7-0.4c-1.2,0-2.5,0.1-3.7,0.4c-1.2,0.2-2.3,0.6-3.4,1.1
	c-1.1,0.5-2.1,1-3.1,1.7c-1,0.7-1.9,1.4-2.7,2.2c-0.8,0.8-1.6,1.7-2.2,2.7c-0.7,1-1.2,2-1.7,3.1c-0.5,1.1-0.8,2.3-1.1,3.4
	c-0.2,1.2-0.4,2.4-0.4,3.7c0,1.2,0.1,2.5,0.4,3.7c0.2,1.2,0.6,2.3,1.1,3.4c0.5,1.1,1,2.1,1.7,3.1c0.7,1,1.4,1.9,2.2,2.7
	c0.8,0.8,1.7,1.6,2.7,2.2c1,0.7,2,1.2,3.1,1.7c1.1,0.5,2.3,0.8,3.4,1.1c1.2,0.3,2.4,0.4,3.7,0.4c1.2,0,2.5-0.1,3.7-0.4
	c1.2-0.2,2.3-0.6,3.4-1.1c1.1-0.5,2.1-1,3.1-1.7c1-0.7,1.9-1.4,2.7-2.2c0.8-0.8,1.6-1.7,2.2-2.7c0.7-1,1.2-2,1.7-3.1
	c0.5-1.1,0.8-2.3,1.1-3.4c0.2-1.2,0.4-2.4,0.4-3.7c0-1.2-0.1-2.5-0.4-3.7C-327.3,302.1-327.6,301-328.1,299.9z M-345,291.3
	c4,0,7.6,1.5,10.3,3.9c0,0.1-2.3,3.5-8.2,5.7c-2.7-4.9-5.6-8.8-5.9-9.1C-347.5,291.5-346.3,291.3-345,291.3z M-348.8,291.8
	C-348.8,291.8-348.8,291.8-348.8,291.8C-348.8,291.8-348.8,291.8-348.8,291.8C-348.8,291.8-348.8,291.8-348.8,291.8z M-351.7,292.8
	c0.2,0.3,3.1,4.2,5.8,9c-7.5,2-14,1.9-14.5,1.9C-359.3,298.9-356.1,294.9-351.7,292.8z M-356.6,317.5c-2.5-2.8-4-6.4-4-10.5
	c0-0.2,0-0.3,0-0.5c0.3,0,8,0.2,16.1-2.2c0.4,0.9,0.9,1.8,1.3,2.7c-0.2,0.1-0.4,0.1-0.6,0.2C-352.4,309.9-356.7,317.5-356.6,317.5
	C-356.7,317.5-356.6,317.5-356.6,317.5z M-345,322.7c-3.7,0-7.1-1.3-9.8-3.4c-0.1,0-0.1-0.1-0.2-0.2c0.1,0.1,0.1,0.1,0.2,0.2
	c0.1,0.1,0.2,0.1,0.2,0.1s3-6.5,12.3-9.8c0,0,0.1,0,0.1,0c2.2,5.7,3.1,10.5,3.3,11.9C-340.8,322.2-342.8,322.7-345,322.7z
	 M-336.2,320c-0.2-0.9-1-5.5-3-11.2c5.1-0.8,9.4,0.6,9.8,0.7C-330.2,313.9-332.7,317.6-336.2,320z M-340.3,306.3
	c-0.1-0.3-0.2-0.5-0.3-0.8c-0.3-0.8-0.7-1.5-1-2.3c6.2-2.5,8.7-6.2,8.7-6.2c2.2,2.7,3.5,6.1,3.6,9.8
	C-329.6,306.8-334.9,305.7-340.3,306.3z"/>
</svg>
