<?xml version="1.0" encoding="utf-8"?>
<!-- Generator: Adobe Illustrator 20.1.0, SVG Export Plug-In . SVG Version: 6.00 Build 0)  -->
<svg version="1.1" id="RAW_ICONS_-_SQUARE__x2F__ROUNDED__x2F__CIRCLE"
	 xmlns="http://www.w3.org/2000/svg" xmlns:xlink="http://www.w3.org/1999/xlink" x="0px" y="0px" viewBox="0 0 50 50"
	 style="enable-background:new 0 0 50 50;" xml:space="preserve">
<style type="text/css">
	.st0{fill:#8E99A8;}
</style>
<path id="Dribbble" class="st0" d="M41.8,17.9c-0.5-1.1-1-2.1-1.7-3.1s-1.4-1.9-2.2-2.7c-0.8-0.8-1.7-1.6-2.7-2.2
	c-1-0.7-2-1.2-3.1-1.7s-2.3-0.8-3.4-1.1c-1.2-0.2-2.4-0.4-3.7-0.4c-1.2,0-2.5,0.1-3.7,0.4c-1.2,0.2-2.3,0.6-3.4,1.1s-2.1,1-3.1,1.7
	s-1.9,1.4-2.7,2.2c-0.8,0.8-1.6,1.7-2.2,2.7c-0.7,1-1.2,2-1.7,3.1s-0.8,2.3-1.1,3.4c-0.2,1.2-0.4,2.4-0.4,3.7c0,1.2,0.1,2.5,0.4,3.7
	c0.2,1.2,0.6,2.3,1.1,3.4s1,2.1,1.7,3.1s1.4,1.9,2.2,2.7c0.8,0.8,1.7,1.6,2.7,2.2c1,0.7,2,1.2,3.1,1.7s2.3,0.8,3.4,1.1
	c1.2,0.3,2.4,0.4,3.7,0.4c1.2,0,2.5-0.1,3.7-0.4c1.2-0.2,2.3-0.6,3.4-1.1s2.1-1,3.1-1.7s1.9-1.4,2.7-2.2c0.8-0.8,1.6-1.7,2.2-2.7
	c0.7-1,1.2-2,1.7-3.1s0.8-2.3,1.1-3.4c0.2-1.2,0.4-2.4,0.4-3.7c0-1.2-0.1-2.5-0.4-3.7C42.6,20.1,42.3,19,41.8,17.9z M24.9,9.3
	c4,0,7.6,1.5,10.3,3.9c0,0.1-2.3,3.5-8.2,5.7c-2.7-4.9-5.6-8.8-5.9-9.1C22.4,9.5,23.6,9.3,24.9,9.3z M21.1,9.8L21.1,9.8L21.1,9.8
	L21.1,9.8z M18.2,10.8c0.2,0.3,3.1,4.2,5.8,9c-7.5,2-14,1.9-14.5,1.9C10.6,16.9,13.8,12.9,18.2,10.8z M13.3,35.5
	c-2.5-2.8-4-6.4-4-10.5c0-0.2,0-0.3,0-0.5c0.3,0,8,0.2,16.1-2.2c0.4,0.9,0.9,1.8,1.3,2.7c-0.2,0.1-0.4,0.1-0.6,0.2
	C17.5,27.9,13.2,35.5,13.3,35.5C13.2,35.5,13.3,35.5,13.3,35.5z M24.9,40.7c-3.7,0-7.1-1.3-9.8-3.4c-0.1,0-0.1-0.1-0.2-0.2
	c0.1,0.1,0.1,0.1,0.2,0.2s0.2,0.1,0.2,0.1s3-6.5,12.3-9.8h0.1c2.2,5.7,3.1,10.5,3.3,11.9C29.1,40.2,27.1,40.7,24.9,40.7z M33.7,38
	c-0.2-0.9-1-5.5-3-11.2c5.1-0.8,9.4,0.6,9.8,0.7C39.7,31.9,37.2,35.6,33.7,38z M29.6,24.3c-0.1-0.3-0.2-0.5-0.3-0.8
	c-0.3-0.8-0.7-1.5-1-2.3C34.5,18.7,37,15,37,15c2.2,2.7,3.5,6.1,3.6,9.8C40.3,24.8,35,23.7,29.6,24.3z"/>
</svg>
