<svg xmlns="http://www.w3.org/2000/svg" x="0px" y="0px" viewBox="0 0 20 20"><path fill="#8e99a8" d="M19.2 6.1c-.3-.6-.5-1.1-.9-1.7s-.8-1-1.3-1.4c-.4-.4-.9-.9-1.5-1.2-.5-.4-1.1-.7-1.7-.9-.6-.3-1.3-.4-1.9-.6C11.4.1 10.7 0 10 0S8.6.1 8 .2c-.7.1-1.3.3-1.9.6s-1.1.6-1.7.9S3.4 2.5 3 3c-.5.4-.9.9-1.3 1.4-.3.6-.6 1.1-.9 1.7S.4 7.4.2 8c-.1.6-.2 1.3-.2 2s.1 1.4.2 2c.1.7.3 1.3.6 1.9.3.6.5 1.1.9 1.7l1.2 1.5c.4.4.9.9 1.5 1.2.5.4 1.1.7 1.7.9s1.3.4 1.9.6c.7.2 1.3.2 2 .2s1.4-.1 2-.2c.7-.1 1.3-.3 1.9-.6.6-.3 1.1-.5 1.7-.9l1.5-1.2c.4-.4.9-.9 1.2-1.5.4-.5.7-1.1.9-1.7.3-.6.4-1.3.6-1.9.1-.7.2-1.3.2-2s-.1-1.4-.2-2c-.2-.7-.3-1.3-.6-1.9zM9.9 1.4c2.2 0 4.2.8 5.6 2.1 0 .1-1.3 1.9-4.5 3.1C9.6 4 8 1.9 7.9 1.7c.7-.2 1.3-.3 2-.3zm-2 .3zm-1.6.5c.1.2 1.7 2.3 3.2 5-4.1 1.1-7.7 1-7.9 1 .5-2.6 2.3-4.8 4.7-6zM3.6 15.7c-1.4-1.5-2.2-3.5-2.2-5.7v-.3c.2 0 4.4.1 8.8-1.2.2.5.5 1 .7 1.5-.1.1-.2.1-.3.1-4.7 1.5-7 5.6-7 5.6zm6.3 2.9c-2 0-3.9-.7-5.4-1.9-.1 0-.1-.1-.1-.1l.1.1.1.1s1.6-3.6 6.7-5.4h.1c1.2 3.1 1.7 5.7 1.8 6.5-1 .4-2.1.7-3.3.7zm4.9-1.5c-.1-.5-.5-3-1.6-6.1 2.8-.4 5.1.3 5.4.4-.6 2.4-1.9 4.4-3.8 5.7zm-2.3-7.5c-.1-.2-.1-.3-.2-.4-.2-.4-.4-.8-.5-1.3 3.4-1.4 4.8-3.4 4.8-3.4 1.2 1.5 1.9 3.3 2 5.4-.2 0-3.1-.6-6.1-.3z"/></svg>