<svg xmlns="http://www.w3.org/2000/svg" id="RAW_ICONS_-_SQUARE_ROUNDED_CIRCLE" width="0.3in" height="0.2in" data-name="RAW ICONS - SQUARE / ROUNDED / CIRCLE" viewBox="0 0 18 18"><title>instagram</title><path fill="#8e99a8" d="M1 13V6.4a8.3 8.3 0 0 1 .1-1.5 4.7 4.7 0 0 1 1.5-2.7A5.3 5.3 0 0 1 5.9.9h9a4.6 4.6 0 0 1 3.7 3.3 10.1 10.1 0 0 1 .4 2.7v4.8a15.2 15.2 0 0 1-.2 3 4.6 4.6 0 0 1-3.3 3.7 10.1 10.1 0 0 1-2.7.3H8.1a15.2 15.2 0 0 1-3-.2 4.8 4.8 0 0 1-2.7-1.4A5.3 5.3 0 0 1 1 13.9V13zm1.7-3.2v3.3a11.1 11.1 0 0 0 .1 1.3A3.1 3.1 0 0 0 5.2 17a8.3 8.3 0 0 0 2.2.2h7.2a3.1 3.1 0 0 0 2.6-2.4 8.3 8.3 0 0 0 .2-2.2V6.7a11.1 11.1 0 0 0-.1-1.3 3.1 3.1 0 0 0-2.4-2.6 8.3 8.3 0 0 0-2.2-.2H5.5A3.1 3.1 0 0 0 2.9 5a8.5 8.5 0 0 0-.2 2.2v2.6z" transform="translate(-1 -.8)"/><path fill="#8e99a8" d="M10 14.4a4.6 4.6 0 1 1 4.7-4.6 4.7 4.7 0 0 1-4.7 4.6zm3-4.6a3 3 0 0 0-2.9-3 3 3 0 1 0 0 5.9A3 3 0 0 0 13 9.8zM14.8 6.1A1.1 1.1 0 0 1 13.7 5a1.1 1.1 0 0 1 1.1-1.1A1 1 0 0 1 15.9 5a1.1 1.1 0 0 1-1.1 1.1z" transform="translate(-1 -.8)"/></svg>