<svg xmlns="http://www.w3.org/2000/svg" id="RAW_ICONS_-_SQUARE_ROUNDED_CIRCLE" width="0.3in" height="0.2in" data-name="RAW ICONS - SQUARE / ROUNDED / CIRCLE" viewBox="0 0 20 16.7"><title>twitter</title><path id="Twitter" fill="#8e99a8" d="M19.3 1.7a7.4 7.4 0 0 1-2.6 1 4.1 4.1 0 0 0-3-1.3 4.2 4.2 0 0 0-4.1 4.2 5.9 5.9 0 0 0 .1 1 11.5 11.5 0 0 1-8.4-4.4 4.1 4.1 0 0 0-.6 2.2 4.4 4.4 0 0 0 1.9 3.5 3.8 3.8 0 0 1-1.9-.6A4.1 4.1 0 0 0 4 11.5l-1.1.2h-.7A4.2 4.2 0 0 0 6 14.5a8.1 8.1 0 0 1-5 1.9H0a11.5 11.5 0 0 0 6.3 1.9C13.8 18.2 18 11.8 18 6.2v-.5a7.9 7.9 0 0 0 2-2.2 7.3 7.3 0 0 1-2.3.6 5.5 5.5 0 0 0 1.6-2.4z" transform="translate(0 -1.4)"/></svg>