<?xml version="1.0" standalone="no"?>
<!DOCTYPE svg PUBLIC "-//W3C//DTD SVG 20010904//EN"
 "http://www.w3.org/TR/2001/REC-SVG-20010904/DTD/svg10.dtd">
<svg version="1.0" xmlns="http://www.w3.org/2000/svg"
 width="500.000000pt" height="500.000000pt" viewBox="0 0 500.000000 500.000000"
 preserveAspectRatio="xMidYMid meet">
<metadata>
Created by potrace 1.11, written by Peter Selinger 2001-2013
</metadata>
<g transform="translate(0.000000,500.000000) scale(0.100000,-0.100000)"
fill="#000000" stroke="none">
<path d="M980 3471 c-47 -15 -87 -40 -117 -75 -117 -132 -21 -340 148 -324 58
6 102 41 120 95 15 48 -11 117 -55 144 -64 39 -163 12 -190 -52 -10 -25 -14
-28 -20 -14 -16 44 29 127 88 158 39 21 55 22 295 25 l254 4 -6 -23 c-4 -13
-176 -405 -384 -871 l-378 -848 -35 0 c-57 0 -164 27 -224 55 -211 100 -311
375 -216 592 22 49 92 128 133 150 29 15 30 15 24 -9 -9 -35 8 -87 40 -120 48
-50 130 -49 183 3 55 56 48 146 -16 195 -31 24 -41 26 -106 23 -200 -11 -348
-189 -348 -419 0 -125 48 -258 124 -346 111 -129 336 -202 541 -176 280 36
482 196 639 502 56 110 506 1112 506 1127 0 5 6 17 13 26 10 14 12 -19 10
-174 -2 -106 -3 -457 -3 -781 l0 -588 -85 0 c-67 0 -87 -3 -91 -15 -4 -8 -1
-22 6 -30 11 -13 75 -15 449 -15 240 0 442 4 449 9 8 5 12 17 10 27 -3 17 -16
20 -109 24 l-105 5 360 703 361 703 6 -183 c4 -101 7 -418 8 -705 l1 -523 -84
0 c-68 0 -85 -3 -90 -16 -17 -43 -6 -44 455 -44 388 0 439 2 454 16 12 12 13
19 4 30 -8 10 -38 14 -110 14 l-99 0 149 293 c82 160 269 531 415 822 l266
530 108 5 c94 4 107 7 110 24 2 10 -2 22 -10 27 -7 5 -209 9 -449 9 -376 0
-438 -2 -449 -15 -10 -12 -10 -18 0 -30 9 -11 33 -15 91 -15 44 0 79 -2 79 -5
0 -3 -174 -350 -387 -772 -378 -749 -388 -767 -395 -728 -4 22 -7 345 -7 717
l-1 678 27 54 27 55 100 3 c89 3 101 5 104 22 2 10 -2 22 -10 27 -7 5 -210 9
-450 9 -415 0 -438 -1 -447 -18 -17 -31 6 -42 91 -42 43 0 78 -3 77 -7 0 -5
-173 -352 -384 -773 l-384 -765 0 787 -1 787 63 3 c54 3 62 5 62 23 0 20 -7
20 -590 22 -324 1 -601 -2 -615 -6z m1010 -46 c0 -3 -14 -39 -32 -80 l-32 -74
-99 -3 -99 -3 -337 -754 -336 -755 -55 -22 c-60 -25 -186 -51 -196 -41 -5 5
479 1101 738 1675 l28 62 210 0 c116 0 210 -2 210 -5z m1260 -75 c0 -28 -7
-64 -15 -80 -15 -30 -17 -30 -98 -30 l-82 0 -373 -745 -372 -745 -120 0 -120
0 412 825 413 825 177 0 178 0 0 -50z m1270 -30 l-40 -80 -78 0 -77 0 -375
-745 -375 -745 -122 0 -121 0 314 623 c173 342 361 713 417 825 l102 202 197
0 198 0 -40 -80z m-3465 -65 c26 -25 32 -63 15 -95 -13 -25 -65 -41 -95 -30
-51 19 -62 95 -19 129 35 28 69 26 99 -4z m-461 -746 c44 -34 34 -102 -18
-124 -79 -33 -142 60 -81 120 30 30 64 32 99 4z"/>
</g>
</svg>
