<?xml version="1.0" encoding="utf-8"?>
<!-- Generator: Adobe Illustrator 19.0.0, SVG Export Plug-In . SVG Version: 6.00 Build 0)  -->
<svg version="1.1" id="RAW_ICONS_-_SQUARE__x2F__ROUNDED__x2F__CIRCLE"
	 xmlns="http://www.w3.org/2000/svg" xmlns:xlink="http://www.w3.org/1999/xlink" x="0px" y="0px" viewBox="-574 576 50 50"
	 style="enable-background:new -574 576 50 50;" xml:space="preserve">
<style type="text/css">
	.st0{fill:#8E99A8;}
</style>
<path class="st0" d="M-567.5,607.6c0-4.4,0-8.8,0-13.2c0-0.2,0-0.3,0-0.5c0-1,0.1-2,0.3-3.1c0.4-2.1,1.3-3.9,2.9-5.4
	c1.9-1.8,4.3-2.6,6.8-2.8c0.6,0,1.2-0.1,1.8-0.1c4.4,0,8.8,0,13.2,0c0.2,0.1,0.3,0,0.5,0c1,0,2.1,0.1,3.1,0.3c3.9,0.8,6.5,3,7.7,6.8
	c0.6,1.8,0.6,3.7,0.7,5.5c0,3.3,0,6.5,0,9.8c0,2,0,4.1-0.4,6.1c-0.8,3.9-3,6.5-6.8,7.7c-1.8,0.6-3.7,0.6-5.5,0.7c-3.3,0-6.6,0-9.8,0
	c-2,0-4.1,0-6.1-0.4c-2.1-0.4-4-1.3-5.5-2.9c-1.8-1.9-2.6-4.3-2.8-6.8C-567.4,608.8-567.5,608.2-567.5,607.6z M-564.1,601
	c0,2.2,0,4.5,0.1,6.7c0,0.9,0.1,1.7,0.2,2.6c0.4,2.8,2.2,4.7,4.9,5.4c1.5,0.4,3,0.4,4.5,0.4c4,0,8.1,0.1,12.1,0
	c0.9,0,1.7-0.1,2.6-0.2c2.8-0.4,4.7-2.2,5.4-4.9c0.4-1.5,0.4-3,0.4-4.5c0-4,0.1-8.1,0-12.1c0-0.9-0.1-1.7-0.2-2.6
	c-0.4-2.8-2.2-4.7-4.9-5.4c-1.5-0.4-3-0.4-4.5-0.4c-4,0-8.1-0.1-12.1,0c-0.9,0-1.7,0.1-2.6,0.2c-2.8,0.4-4.7,2.2-5.4,4.9
	c-0.4,1.5-0.4,3-0.4,4.6C-564.1,597.4-564.1,599.2-564.1,601z"/>
<path class="st0" d="M-549,610.5c-5.2,0-9.5-4.3-9.5-9.6c0-5.3,4.3-9.5,9.6-9.5c5.2,0,9.5,4.3,9.5,9.6
	C-539.5,606.2-543.8,610.5-549,610.5z M-542.9,601c0.1-3.3-2.8-6.1-6-6.1c-3.3,0-6.1,2.8-6.1,6.1c0,3.3,2.8,6.1,6.1,6.1
	C-545.7,607.1-542.9,604.3-542.9,601z"/>
<path class="st0" d="M-539.2,593.4c-1.3,0-2.2-1-2.2-2.3c0-1.3,1-2.2,2.3-2.2c1.3,0,2.3,1,2.2,2.3
	C-536.9,592.4-537.9,593.4-539.2,593.4z"/>
</svg>
