<?xml version="1.0" encoding="utf-8"?>
<!-- Generator: Adobe Illustrator 19.0.0, SVG Export Plug-In . SVG Version: 6.00 Build 0)  -->
<svg version="1.1" id="RAW_ICONS_-_SQUARE__x2F__ROUNDED__x2F__CIRCLE"
	 xmlns="http://www.w3.org/2000/svg" xmlns:xlink="http://www.w3.org/1999/xlink" x="0px" y="0px" viewBox="-370 282 50 50"
	 style="enable-background:new -370 282 50 50;" xml:space="preserve">
<style type="text/css">
	.st0{fill:#8E99A8;}
</style>
<g id="LinkedIn">
	<rect x="-362.5" y="301" class="st0" width="7.2" height="22.8"/>
	<path class="st0" d="M-335.7,300.8c-4.1,0-6.7,2.2-7.2,3.8V301h-8.1c0.1,1.9,0,22.8,0,22.8h8.1v-12.3c0-0.7,0-1.4,0.2-1.9
		c0.6-1.4,1.7-2.8,3.9-2.8c2.8,0,4.1,2.1,4.1,5.2v11.8h8.2v-12.7C-326.6,304-330.6,300.8-335.7,300.8z"/>
	<path class="st0" d="M-359.1,290.2c-2.7,0-4.4,1.7-4.4,4c0,2.2,1.7,3.9,4.3,3.9h0.1c2.7,0,4.4-1.7,4.4-4
		C-354.8,291.9-356.4,290.2-359.1,290.2z"/>
</g>
</svg>
